<svg version="1.2" xmlns="http://www.w3.org/2000/svg" viewBox="0 0 1200 1200" width="1200" height="1200">
	<title>4168669_89977-ai</title>
	<style>
		.s0 { fill: #b78b49 } 
	</style>
	<g id="_Artboards_">
	</g>
	<g id="BG">
	</g>
	<g id="Object">
		<g id="&lt;Group&gt;">
			<g id="&lt;Group&gt;">
				<g id="&lt;Group&gt;">
					<path id="&lt;Path&gt;" class="s0" d="m549 803c-19.5-14.5-41.8-25.9-65.4-32.7-11.6-3.3-23-6.8-34.4-10.4-11.5-3.6-22.7-7.6-33.9-11.9-11.1-4.3-22.1-9-32.4-14.9-4.2-2.3-8.2-4.9-12-7.8-1.6-1.7-3.1-3.4-4.5-5.2-5-6.5-8.8-13.7-12.2-21.1-6.5-14.9-10.8-30.8-14.9-46.9-2.2-8.1-4.3-16.2-6.8-24.2l-2-6.2c-0.3-1-0.7-2-1.3-3.1-0.4-1-0.9-2.1-1.4-3-2-4-4.7-7.6-7.5-11-11.5-13.2-28.2-21.1-44.8-21.9 16.6-0.9 33.3-8.8 44.8-22 2.9-3.3 5.5-7 7.5-10.9 0.5-1 1-2.1 1.5-3.1 0.5-1.1 0.9-2.1 1.2-3.1l2-6.1c2.5-8.1 4.6-16.2 6.8-24.3 4.1-16.1 8.3-32 14.9-46.9 3.3-7.4 7.2-14.6 12.2-21 1.5-2 3.1-3.8 4.8-5.6 3.7-2.8 7.6-5.3 11.7-7.6 10.3-5.9 21.3-10.5 32.4-14.9 11.2-4.2 22.4-8.2 33.9-11.8 11.4-3.7 22.8-7.2 34.4-10.4 23.6-6.9 45.9-18.2 65.4-32.8 19.7-14.3 37.4-31.3 51.8-50.7-17.1 17-35.7 32.2-55.6 45.2-5 3.3-10.1 6.3-15.2 9.3-2.6 1.5-5.2 2.8-7.8 4.2l-3.9 2.1-4.1 1.9c-10.6 5.3-21.7 9.1-33 12.5-23.2 6.8-46.3 14.4-68.5 24.4-11.1 4.9-21.9 10.5-32 17.5-3 2.1-5.9 4.3-8.7 6.6-3.1 2.2-6.1 4.6-8.8 7.3-6 6.1-10.9 13.3-15 20.8-4.2 7.5-7.2 15.6-10.1 23.5-2.7 8-4.9 16.2-7.2 24.2-2 8.2-4.1 16.2-6.2 24.2l-1.6 5.8c-0.3 1.1-0.6 2-1 2.8-0.3 0.9-0.6 1.8-1.1 2.6-1.6 3.6-3.7 6.9-5.9 10.1-9.5 12.6-23.8 21.8-39.9 26.1q-0.1 0-0.2 0 0.1 0 0.1 0.1 0 0-0.1 0 0.1 0 0.2 0c16.1 4.3 30.4 13.5 39.9 26.1 2.3 3.2 4.3 6.6 5.9 10.1 0.5 0.9 0.8 1.7 1.1 2.6 0.4 0.9 0.7 1.7 1 2.8l1.6 5.8q3.2 12 6.2 24.2c2.3 8 4.5 16.2 7.2 24.2 1.4 4 2.8 8 4.5 11.9 0.9 2 1.7 4 2.6 5.9l2.9 5.7c4.1 7.5 9.1 14.7 15.1 20.8 2.9 2.9 6.1 5.4 9.4 7.7 2.6 2.2 5.3 4.2 8.1 6.2 10.1 6.9 20.9 12.5 32 17.5 22.2 10 45.3 17.5 68.5 24.4 11.3 3.4 22.4 7.2 33 12.5l4.1 1.8 3.9 2.1c2.6 1.4 5.2 2.8 7.8 4.2 5.1 3.1 10.2 6 15.2 9.3 19.9 13.1 38.5 28.3 55.6 45.3-14.4-19.4-32.1-36.4-51.8-50.8z"/>
				</g>
				<g id="&lt;Group&gt;">
					<path id="&lt;Path&gt;" class="s0" d="m924.9 582.7q0-0.1 0.1-0.1-0.1 0-0.2 0c-16.1-4.3-30.4-13.5-39.9-26.1-2.2-3.2-4.3-6.5-5.9-10.1-0.5-0.8-0.8-1.7-1.1-2.6-0.4-0.8-0.7-1.7-1-2.8l-1.6-5.8c-2.1-8-4.2-16-6.2-24.2-2.3-8-4.5-16.2-7.2-24.2-2.9-7.9-5.9-16-10-23.5-3.7-6.7-8.1-13.1-13.2-18.8q-1.7-2.1-3.6-4.1c-4.2-4.6-9.1-8.3-14.1-11.8-10.1-7-20.9-12.6-32-17.5-22.2-10-45.3-17.6-68.5-24.4-11.3-3.4-22.4-7.2-33-12.5l-4.1-1.9-3.9-2.1c-2.6-1.4-5.2-2.7-7.8-4.2-5.1-3-10.3-6-15.2-9.3-19.9-13-38.5-28.2-55.7-45.2 14.5 19.4 32.2 36.4 51.9 50.7 19.5 14.6 41.8 25.9 65.4 32.8 11.6 3.2 23 6.7 34.4 10.4 11.5 3.6 22.7 7.6 33.9 11.8 11.1 4.4 22.1 9 32.4 14.9q3.1 1.7 6 3.6c3.2 3 6.2 6.2 8.8 9.6 5 6.4 8.9 13.6 12.2 21 6.6 14.9 10.8 30.8 14.9 46.9 2.2 8.1 4.3 16.2 6.8 24.3l2 6.1c0.3 1 0.7 2 1.2 3.1 0.5 1 1 2.1 1.5 3.1 2 3.9 4.6 7.6 7.5 10.9 11.5 13.2 28.2 21.1 44.8 22-16.6 0.8-33.3 8.7-44.8 21.9-2.9 3.3-5.5 7-7.5 11-0.5 0.9-1 2-1.5 3-0.5 1.1-0.9 2.1-1.2 3.1l-2 6.2c-2.5 8-4.6 16.1-6.8 24.2-4.1 16.1-8.3 32-14.9 47-3.3 7.3-7.2 14.5-12.2 21-2.5 3.3-5.4 6.4-8.5 9.2q-3.1 2-6.3 3.8c-10.3 5.9-21.3 10.6-32.4 14.9-11.2 4.3-22.4 8.3-33.9 11.9-11.4 3.6-22.8 7.1-34.4 10.4-23.6 6.8-45.9 18.2-65.4 32.7-19.7 14.4-37.4 31.4-51.9 50.8 17.2-17 35.8-32.2 55.7-45.3 4.9-3.3 10.1-6.2 15.2-9.3 2.6-1.4 5.2-2.8 7.8-4.2l3.9-2.1 4.1-1.8c10.6-5.3 21.7-9.1 33-12.5 23.2-6.9 46.3-14.4 68.5-24.4 11.1-5 21.9-10.6 32-17.5 5-3.5 9.9-7.3 14.1-11.8q1.7-1.8 3.3-3.8c5.3-5.8 9.7-12.3 13.5-19.1 4.1-7.5 7.1-15.5 10-23.5 2.7-8 4.9-16.2 7.2-24.2 2-8.1 4.1-16.2 6.2-24.2l1.6-5.8c0.3-1 0.6-1.9 1-2.8 0.3-0.9 0.6-1.7 1.1-2.6 1.6-3.5 3.7-6.9 5.9-10.1 9.5-12.6 23.8-21.8 39.9-26.1q0.1 0 0.2 0-0.1 0-0.1 0z"/>
				</g>
			</g>
			<g id="&lt;Group&gt;">
				<g id="&lt;Group&gt;">
					<g id="&lt;Group&gt;">
						<path id="&lt;Path&gt;" class="s0" d="m383.1 469.5c1.6-5.2 5-9.7 8.8-13.5 3.9-3.8 8.3-7 12.8-10 9.1-5.8 18.8-10.5 28.7-14.8 19.9-8.5 40.5-15.1 61.1-21.2 10.3-3.1 20.4-6.6 29.9-11.4l3.7-1.7 3.5-2c2.3-1.3 4.7-2.5 7-3.9 4.6-2.8 9.2-5.5 13.6-8.6 8.9-6 17.4-12.5 25.5-19.6 8.1-7 15.8-14.5 23.1-22.5-13.7 16.7-29.9 31.3-47.5 43.7-4.4 3.2-9 6.1-13.6 8.9-2.3 1.4-4.7 2.7-7 4l-3.6 2-3.6 1.8c-9.6 5-19.9 8.6-30.3 11.8-20.6 5.9-41.1 12.4-61 20.5-9.9 4-19.7 8.5-28.9 14.1-4.5 2.8-9 5.8-12.9 9.4-3.9 3.6-7.4 7.9-9.3 13z"/>
					</g>
					<g id="&lt;Group&gt;">
						<path id="&lt;Path&gt;" class="s0" d="m818.4 469.5c-1.8-5.1-5.4-9.4-9.3-13-3.9-3.6-8.4-6.6-12.9-9.4-9.2-5.6-18.9-10.1-28.9-14.1-19.9-8.1-40.4-14.6-61-20.5-10.4-3.2-20.6-6.8-30.3-11.8l-3.6-1.8-3.6-2c-2.3-1.3-4.7-2.6-7-4-4.6-2.8-9.2-5.7-13.6-8.9-17.6-12.4-33.7-27-47.4-43.7 7.2 8 14.9 15.5 23 22.5 8.1 7.1 16.7 13.6 25.5 19.6 4.4 3.1 9.1 5.8 13.6 8.6 2.3 1.4 4.7 2.6 7 3.9l3.5 2 3.7 1.7c9.5 4.8 19.6 8.3 29.9 11.4 20.6 6.1 41.2 12.7 61.1 21.2 9.9 4.3 19.6 9 28.8 14.8 4.5 3 8.9 6.2 12.7 10 3.8 3.8 7.2 8.3 8.8 13.5z"/>
					</g>
				</g>
				<g id="&lt;Group&gt;">
					<g id="&lt;Group&gt;">
						<path id="&lt;Path&gt;" class="s0" d="m383.1 695.8c1.9 5.1 5.4 9.3 9.3 12.9 3.9 3.7 8.4 6.7 12.9 9.5 9.2 5.6 19 10 28.9 14.1 19.9 8 40.4 14.6 61 20.5 10.4 3.2 20.7 6.8 30.3 11.8l3.6 1.8 3.6 1.9c2.3 1.4 4.7 2.6 7 4 4.6 2.9 9.2 5.7 13.6 8.9 17.6 12.5 33.8 27.1 47.5 43.7-7.3-8-15-15.5-23.1-22.5-8.1-7-16.6-13.6-25.5-19.6-4.4-3-9-5.8-13.6-8.6-2.3-1.3-4.7-2.6-7-3.9l-3.5-1.9-3.7-1.7c-9.5-4.9-19.6-8.4-29.9-11.5-20.6-6.1-41.2-12.6-61.1-21.1-9.9-4.3-19.6-9-28.7-14.9-4.5-2.9-8.9-6.1-12.8-10-3.8-3.7-7.2-8.2-8.8-13.4z"/>
					</g>
					<g id="&lt;Group&gt;">
						<path id="&lt;Path&gt;" class="s0" d="m818.4 695.8c-1.6 5.2-5 9.7-8.8 13.4-3.8 3.9-8.2 7.1-12.7 10-9.2 5.9-18.9 10.6-28.8 14.9-19.9 8.5-40.5 15-61.1 21.1-10.3 3.1-20.4 6.6-29.9 11.5l-3.7 1.7-3.5 1.9c-2.3 1.3-4.7 2.6-7 3.9-4.5 2.8-9.2 5.6-13.6 8.6-8.8 6-17.4 12.6-25.5 19.6-8.1 7-15.8 14.5-23 22.5 13.7-16.6 29.8-31.2 47.4-43.7 4.4-3.2 9-6 13.6-8.9 2.3-1.4 4.7-2.6 7-4l3.6-1.9 3.6-1.8c9.7-5 19.9-8.6 30.3-11.8 20.6-5.9 41.1-12.5 61-20.5 10-4.1 19.7-8.5 28.9-14.1 4.5-2.8 9-5.8 12.9-9.5 3.9-3.6 7.5-7.8 9.3-12.9z"/>
					</g>
				</g>
				<g id="&lt;Group&gt;">
					<g id="&lt;Group&gt;">
						<path id="&lt;Path&gt;" class="s0" d="m803.8 441.8c6.6 3.4 12.7 8 17.9 13.4 5 5.6 9.1 12 12.5 18.7 6.8 13.5 10.8 28 14.7 42.4 1.9 7.2 3.7 14.5 5.7 21.6l1.6 5.3c0.2 0.9 0.6 1.8 1 2.6 0.3 0.8 0.6 1.7 1.1 2.5 1.5 3.3 3.5 6.3 5.7 9.3 2.3 2.9 4.9 5.5 7.6 7.9 2.8 2.4 5.9 4.5 9 6.4 3.2 1.9 6.6 3.5 10 4.8q5.3 1.9 10.8 3c-14.9-1.7-29.2-9.2-38.9-20.9-2.4-3-4.6-6.1-6.2-9.5-0.5-0.9-0.8-1.8-1.2-2.7-0.4-0.8-0.8-1.7-1-2.6l-1.7-5.4c-2.1-7.2-4-14.4-5.9-21.6-3.7-14.4-7.7-28.8-14-42.2-3.2-6.7-7-13.1-11.8-18.7-4.8-5.7-10.5-10.4-16.9-14.3z"/>
					</g>
					<g id="&lt;Group&gt;">
						<g id="&lt;Group&gt;">
							<path id="&lt;Path&gt;" class="s0" d="m792.8 720.5c6.4-3.9 12.1-8.6 16.9-14.2 4.8-5.7 8.6-12.1 11.8-18.8 6.3-13.4 10.3-27.7 14-42.2 1.9-7.2 3.8-14.4 5.9-21.6l1.7-5.4c0.2-0.9 0.6-1.7 1-2.6 0.4-0.9 0.7-1.8 1.2-2.6 1.6-3.5 3.8-6.6 6.2-9.6 9.7-11.7 24-19.2 38.9-20.9q-5.5 1.1-10.8 3c-3.4 1.4-6.8 2.9-10 4.8-3.1 1.9-6.2 4-9 6.4-2.7 2.4-5.3 5.1-7.6 8-2.2 2.9-4.2 5.9-5.7 9.2-0.5 0.8-0.8 1.7-1.1 2.5-0.4 0.8-0.8 1.7-1 2.6l-1.6 5.3c-2 7.1-3.8 14.4-5.7 21.6-3.9 14.4-7.9 28.9-14.7 42.4-3.4 6.7-7.5 13.1-12.5 18.7-5.2 5.4-11.3 10.1-17.9 13.4z"/>
						</g>
					</g>
				</g>
				<g id="&lt;Group&gt;">
					<g id="&lt;Group&gt;">
						<path id="&lt;Path&gt;" class="s0" d="m396.2 442.8c-6.4 3.9-12.1 8.6-16.9 14.3-4.8 5.6-8.6 12-11.8 18.7-6.3 13.4-10.3 27.8-14 42.2-1.9 7.2-3.8 14.4-5.9 21.6l-1.7 5.4c-0.2 0.9-0.6 1.8-1 2.6-0.4 0.9-0.7 1.8-1.2 2.7-1.6 3.4-3.8 6.5-6.2 9.5-9.7 11.7-24 19.2-38.9 20.9q5.5-1.1 10.8-3c3.4-1.3 6.8-2.9 10-4.8 3.1-1.9 6.2-4 9-6.4 2.7-2.4 5.3-5 7.6-7.9 2.2-3 4.2-6 5.7-9.3 0.5-0.8 0.8-1.7 1.1-2.5 0.4-0.8 0.8-1.7 1-2.6l1.6-5.3c2-7.1 3.8-14.4 5.7-21.6 3.9-14.4 7.9-28.9 14.7-42.4 3.4-6.7 7.5-13.1 12.5-18.7 5.2-5.4 11.3-10 17.9-13.4z"/>
					</g>
					<g id="&lt;Group&gt;">
						<g id="&lt;Group&gt;">
							<path id="&lt;Path&gt;" class="s0" d="m309.6 582.6c14.9 1.7 29.2 9.2 38.9 20.9 2.4 3 4.6 6.1 6.2 9.6 0.5 0.8 0.8 1.7 1.2 2.6 0.4 0.9 0.8 1.7 1 2.6l1.7 5.4c2.1 7.2 4 14.4 5.9 21.6 3.7 14.5 7.7 28.8 14 42.2 3.2 6.7 7 13.1 11.8 18.8 4.8 5.6 10.5 10.3 16.9 14.2-6.6-3.3-12.7-8-17.9-13.4-5-5.6-9.1-12-12.5-18.7-6.8-13.5-10.8-28-14.7-42.4-1.9-7.2-3.7-14.5-5.7-21.6l-1.6-5.3c-0.2-0.9-0.6-1.8-1-2.6-0.3-0.8-0.6-1.7-1-2.5-1.6-3.3-3.6-6.3-5.8-9.2-2.3-2.9-4.9-5.6-7.6-8-2.8-2.4-5.9-4.5-9-6.4-3.2-1.9-6.6-3.4-10-4.8q-5.3-1.9-10.8-3z"/>
						</g>
					</g>
				</g>
			</g>
			<g id="&lt;Group&gt;">
				<path id="&lt;Compound Path&gt;" class="s0" d="m618.9 561.8q-2.8 2.2-8.1 3.3l-1 0.3q2.4 1.1 3.7 3.4 1.3 2.4 1.3 5.5 0 3.7-2.3 6.7-2.3 2.9-6.5 4.6-4.1 1.7-9.6 1.7-5.8 0-10.3-1.6-4.4-1.6-6.8-4.6-2.5-3-2.5-7.1 0-3.6 1.9-6 1.9-2.5 4.4-3.8 2.4-1.3 4.5-1.8-6-2.4-6-6.8 0-2.1 1.5-3.7 1.5-1.6 3.9-2.4 2.5-0.8 5.2-0.8 2 0 3.3 0.3 1.3 0.3 2.3 0.8 3.2 1.7 3.2 4.4 0 1-0.5 1.8-0.6 0.8-1.5 1.2-1 0.5-2.1 0.5-1.7 0-2.8-0.9-1.1-0.8-1.1-2.4 0-1.4 1-2.5 0.9-1 2.4-1.3-0.4-0.4-1.4-0.7-1-0.3-2.1-0.3-1.9 0-3.4 0.8-1.5 0.8-2.4 2.4-0.9 1.5-0.9 3.8 0 3.1 2.1 5.5 2-0.5 3-0.5 1 0 1.5 0.4 0.5 0.4 0.5 1.1 0 0.5-0.4 0.8-0.5 0.3-1.1 0.3-0.7 0-1.5-0.3-0.7-0.4-1.3-0.7-0.5-0.3-0.6-0.4-2.7 1.4-4.2 3.4-1.5 2.1-1.5 5.2 0 5.2 4.2 7.8 4.1 2.6 11.4 2.6 3.7 0 7.1-1.1 3.4-1.1 5.5-3.2 2.1-2.1 2.1-5 0-4.9-4.1-6.8-1.5 0.5-3.5 1-2.1 0.6-2.9 0.8-3 0.7-4.8 1.4-1.9 0.7-2.9 1.6-0.9 0.9-0.9 2.2 0 1.3 0.8 2.3 0.9 0.9 2.2 1.5 1.3 0.5 2.7 0.5 0.6 0 1.3-0.1 0.6-0.2 0.9-0.4-1.3-0.4-2-1.4-0.7-0.9-0.7-2.1 0-1.7 1.2-2.6 1.2-0.9 3.1-0.9 1.9 0 3 1 1.1 0.9 1.1 2.6 0 2.4-2.2 3.6-2.1 1.2-5.4 1.2-2.2 0-4-0.7-1.8-0.8-2.9-2.3-1-1.6-1-3.8 0-4 3-6.3 3.1-2.4 8.9-3.5 1-0.3 3.6-0.9 2.5-0.6 4.4-1.2 4.1-1.1 6-2.3 2-1.1 2-3 0-1.4-0.9-2.5-0.9-1.1-2.2-1.7-1.4-0.7-2.9-0.7-1.1 0-1.6 0.3 1.2 0.5 1.9 1.4 0.7 0.9 0.7 2 0 1.5-1.2 2.5-1.2 0.9-3 0.9-1.9 0-3-1-1.2-0.9-1.2-2.5 0-2.1 1.8-3.3 1.8-1.2 4.9-1.2 2.5 0 4.4 0.9 1.9 0.9 3 2.6 1 1.7 1 4 0 3.9-2.7 6.2z"/>
			</g>
			<g id="&lt;Group&gt;">
			</g>
			<g id="&lt;Group&gt;">
			</g>
			<g id="&lt;Group&gt;">
				<path id="&lt;Compound Path&gt;" class="s0" d="m404.1 590.8q-5.3 0-9.9-2.5-4.5-2.4-7.3-7.1-2.8-4.7-2.8-11.2 0-5.4 2.4-10.8 2.3-5.3 7.2-8.8 4.9-3.5 12.2-3.5 3.6 0 6.8 0.8 3.2 0.8 5.5 2.6l-1 11.3-3-0.5-1.4-7.4q-1.3-1.7-3.5-2.6-2.2-1-5.3-1-3.6 0-6.4 2.2-2.9 2.1-4.6 6-1.6 4-1.6 9.3 0 5.9 2.1 10.1 2.1 4.2 5.6 6.3 3.5 2.2 7.6 2.2 3.2 0 6.4-1.4 3.1-1.5 5.5-3.7l1.2 2.6q-1.5 1.7-3.8 3.4-2.4 1.6-5.5 2.6-3 1.1-6.4 1.1z"/>
				<path id="&lt;Compound Path&gt;" fill-rule="evenodd" class="s0" d="m422.3 590l0.3-2.6 5.1-1.8 14.5-37.6 5.1-1 13.2 38.8 4.7 1.4-0.3 2.8h-17.5l0.4-2.6 5.8-1.8-3.7-10.3h-14.2l-3.4 10.5 6.3 1.4-0.4 2.8zm14.7-18.2h11.9l-5.6-16.9z"/>
				<path id="&lt;Compound Path&gt;" fill-rule="evenodd" class="s0" d="m490.3 590h-18.6l0.4-2.6 5.7-1.5v-33.2l-5.8-1.1 0.3-2.6q4.7-0.7 8.4-1.1 3.7-0.4 7.1-0.4 8.1 0 12.5 2.4 4.5 2.4 4.5 8.1 0 2.2-1.1 4.5-1.2 2.3-3.4 4.2-2.2 1.9-5.2 2.9v0.1l6.1 8.4q2.4 3.4 3.7 4.9 1.3 1.6 2.7 2.7 1.5 1 3.5 1.6l1.1 0.4-0.5 2.3q-1.9 0.7-4.1 0.7-3.7 0-6.7-2.5-2.9-2.4-5.3-6.8l-5.4-9.7h-5.9v14l6.4 1.4zm-6.1-39.4v18.1h6.7q2.9-0.9 4.8-3.1 2-2.3 2-5.6 0-2.8-1.1-5-1.1-2.2-3.2-3.4-2.2-1.2-5.1-1.2-1.5 0-2.6 0.1-1.2 0-1.5 0.1z"/>
				<path id="&lt;Compound Path&gt;" fill-rule="evenodd" class="s0" d="m515.8 590l0.3-2.6 5-1.8 14.5-37.6 5.1-1 13.3 38.8 4.6 1.4-0.3 2.8h-17.5l0.4-2.6 5.8-1.8-3.7-10.3h-14.2l-3.4 10.5 6.3 1.4-0.4 2.8zm14.7-18.2h11.9l-5.6-16.9z"/>
				<path id="&lt;Compound Path&gt;" class="s0" d="m632.2 601l-1.8-3q4.1-3.9 6.1-7.3 2-3.5 2-7.4v-31.5l-6.2-1.5 0.4-2.5h18.4l-0.3 2.5-5.8 1.3v25.3q0 7-1.1 11-1.2 4.1-3.8 6.9-2.6 2.8-7.9 6.2z"/>
				<path id="&lt;Compound Path&gt;" fill-rule="evenodd" class="s0" d="m653.2 590l0.3-2.6 5.1-1.8 14.5-37.6 5.1-1 13.2 38.8 4.7 1.4-0.3 2.8h-17.5l0.4-2.6 5.8-1.8-3.7-10.3h-14.2l-3.4 10.5 6.3 1.4-0.4 2.8zm14.6-18.2h12l-5.6-16.9z"/>
				<path id="&lt;Compound Path&gt;" class="s0" d="m701.7 590l0.4-2.6 5.7-1.5 2.4-34.1-6.2-1.5 0.4-2.5h13.6l2.7 6.5 8.9 25 10.4-26.1 2.4-5.4h13.4l-0.3 2.5-5.7 1.3 1.7 34.5 6.2 1.1-0.3 2.8h-18.2l0.3-2.6 5.7-1.5-1.9-30-12.9 32.4-4.4 0.6-11.6-31.7-2.2 28.9 6.3 1.1-0.5 2.8z"/>
				<path id="&lt;Compound Path&gt;" class="s0" d="m762.5 550.3l0.4-2.5h33.7l-1 10.8-3-0.4-1.3-7.3h-16v16.1h9.8l1.4-4 3.3-0.5-1.2 13.2-2.9 0.4-1.1-5.9h-9.3v16.5h16.8l3.3-7.8 2.8 0.4-1 10.7h-34.4l0.2-2.6 5.7-1.5v-34.1z"/>
				<path id="&lt;Compound Path&gt;" class="s0" d="m814.4 590.8q-3.5 0-6.6-1.1-3.1-1.2-4.8-2.9l0.4-9.7 3.5 0.5 1.3 6.4q1 1.4 2.9 2.4 1.9 0.9 4.1 0.9 1.9 0 3.8-0.7 1.8-0.8 3-2.4 1.2-1.6 1.2-4 0-1.8-1.1-3.3-1.1-1.5-2.7-2.6-1.7-1.1-4.6-2.6-3.5-1.9-5.7-3.4-2.2-1.5-3.7-3.9-1.6-2.3-1.6-5.5 0-3.7 1.9-6.4 1.8-2.7 4.9-4.2 3-1.4 6.4-1.4 5.5 0 9.6 3.4-0.1 1.6-0.4 4.9-0.3 3.2-0.4 4.7l-3.3-0.4-0.9-6.5q-0.3-0.7-1.2-1.4-0.8-0.8-2.1-1.3-1.2-0.5-2.4-0.5-2.8 0-4.5 1.6-1.7 1.6-1.7 4.8 0 2.5 1.3 4.3 1.3 1.8 3.2 3.1 1.9 1.2 5.1 3 3.4 1.8 5.4 3.2 2 1.3 3.4 3.3 1.4 2 1.4 4.8 0 3.7-2.1 6.7-2.1 3-5.6 4.6-3.5 1.6-7.4 1.6z"/>
			</g>
			<g id="&lt;Group&gt;">
				<path id="&lt;Path&gt;" class="s0" d="m600.9 360c-3-0.7-5.2 1.6-5.1 4.5 0 1.7 0.4 3.5 0.8 5.2 0.3 1.9 1.8 3.9 1.9 5.6 0 0.5 0.3 0.9 0.6 1.2 0.3 1.3 2.1 1.2 2.8 0.3 1.8-2.5 2.7-7.1 2.9-10 0.2-2.8-0.9-6.1-3.9-6.8z"/>
			</g>
			<g id="&lt;Group&gt;">
				<path id="&lt;Path&gt;" class="s0" d="m590.1 380.3c-0.8-2.2-2.1-4.4-3.8-6-1.6-1.4-4.4-2.4-6.2-0.7-1.6 1.4-0.8 3.7 0.4 5 1 1.1 2.2 1.9 3.6 2.5 1.4 0.6 2.7 1.3 4.3 1.3q0.4-0.1 0.7-0.2c0.7-0.3 1.3-1.1 1-1.9z"/>
			</g>
			<g id="&lt;Group&gt;">
				<path id="&lt;Path&gt;" class="s0" d="m622.2 371.9c-1.7-1.5-4.6-1-6.2 0.3-1.1 0.8-1.7 2-2.4 3.1-0.7 1.1-1.5 2.2-1.8 3.5-0.1 0.4 0 0.8 0.2 1.1-0.3 1.1 1 2.4 2.2 1.7 2.5-1.5 5.5-1.4 7.6-3.4 1.8-1.6 2.3-4.5 0.4-6.3z"/>
			</g>
			<g id="&lt;Group&gt;">
				<g id="&lt;Group&gt;">
					<g id="&lt;Group&gt;">
						<g id="&lt;Group&gt;">
							<g id="&lt;Group&gt;">
								<path id="&lt;Path&gt;" class="s0" d="m533.1 702.2c5.4-1.2 11.7 0.3 17.7 4.2 5.1 3.3 9.3 8 13.4 12.4 5.8 6.4 11.3 12.4 19 15 4.7 1.7 10.8 1.3 14-2q0.7 0.2 1.5 0.2c-3.5 4.4-10.6 4.9-16 3.1-7.9-2.8-13.8-9.2-19.4-15.4-4.1-4.4-8.3-9-13.2-12.2-3.3-2.2-9.9-5.6-16.7-4-5.5 1.3-9.1 6.4-8.6 11.9 0.5 4.1 3.5 8.5 8.3 8.8 3.4 0.3 7.6-1.6 8.7-5.6 0.5-1.8-0.1-4-1.4-5.5-1.1-1.3-2.5-1.8-4-1.6-1.7 0.2-3.2 1.3-3.8 2.6-0.3 0.7-0.6 1.9 0.3 3.1 0.1 0.3 0.1 0.7-0.3 0.9-0.3 0.2-0.7 0.1-0.8-0.2-0.9-1.4-1-2.9-0.4-4.3 0.8-1.8 2.7-3.1 4.8-3.4 1.9-0.2 3.8 0.5 5.1 2 1.6 1.8 2.3 4.5 1.7 6.8-1.2 4.6-6 6.8-10 6.5-5.5-0.4-8.9-5.3-9.4-10q-0.1-0.1-0.1-0.3c-0.5-6 3.6-11.5 9.6-13z"/>
							</g>
						</g>
					</g>
					<g id="&lt;Group&gt;">
						<g id="&lt;Group&gt;">
							<g id="&lt;Group&gt;">
								<path id="&lt;Path&gt;" class="s0" d="m670.8 702.2c-5.4-1.2-11.7 0.3-17.7 4.2-5.1 3.3-9.3 8-13.5 12.4-5.8 6.4-11.3 12.4-18.9 15-4.7 1.7-10.8 1.3-14-2q-0.8 0.2-1.5 0.2c3.4 4.4 10.6 4.9 15.9 3.1 8-2.8 13.8-9.2 19.5-15.4 4.1-4.4 8.2-9 13.2-12.2 3.3-2.2 9.9-5.6 16.7-4 5.4 1.3 9.1 6.4 8.5 11.9-0.4 4.1-3.4 8.5-8.2 8.8-3.5 0.3-7.7-1.6-8.7-5.6-0.5-1.8 0.1-4 1.4-5.5 1.1-1.3 2.5-1.8 4-1.6 1.6 0.2 3.1 1.3 3.8 2.6 0.3 0.7 0.5 1.9-0.3 3.1-0.2 0.3-0.1 0.7 0.2 0.9 0.3 0.2 0.7 0.1 0.9-0.2 0.9-1.4 1-2.9 0.3-4.3-0.8-1.8-2.6-3.1-4.7-3.4-2-0.2-3.8 0.5-5.2 2-1.6 1.8-2.2 4.5-1.6 6.8 1.1 4.6 6 6.8 10 6.5 5.5-0.4 8.9-5.3 9.4-10q0-0.1 0-0.3c0.6-6-3.5-11.5-9.5-13z"/>
							</g>
						</g>
					</g>
					<g id="&lt;Group&gt;">
						<g id="&lt;Group&gt;">
							<path id="&lt;Compound Path&gt;" fill-rule="evenodd" class="s0" d="m601.4 730.5c-1-1.2-1.8-2.5-2.5-3.8-0.7-1.3-1.3-2.7-1.7-4.2-0.2-0.8-0.4-1.6-0.4-2.4 0-0.8 0.2-1.7 0.5-2.5 0.2-0.4 0.5-0.7 0.8-1.1q0.4-0.4 0.9-0.8 0.5-0.4 1.1-0.7 0.6-0.2 1.3-0.3c0.9-0.1 1.9 0.2 2.6 0.8 0.7 0.5 1.2 1.3 1.5 2.1 0.3 0.8 0.4 1.6 0.4 2.5 0 0.8-0.3 1.5-0.5 2.3-0.4 1.5-1 2.8-1.7 4.2-0.7 1.3-1.5 2.6-2.3 3.9zm0 0q0.8-2.1 1.6-4.2 0.8-2.1 1.3-4.2c0-0.4 0.1-0.7 0.2-1.1q0.1-0.5 0.1-1c-0.1-0.6-0.2-1.3-0.4-1.9-0.3-0.6-0.6-1.1-1.1-1.5q-0.7-0.5-1.5-0.4-0.5 0-0.9 0.2-0.4 0.2-0.8 0.5-0.2 0.1-0.4 0.3c-0.1 0.1-0.2 0.2-0.3 0.4-0.1 0.1-0.2 0.2-0.3 0.3q-0.2 0.2-0.3 0.4c-0.2 0.5-0.4 1.2-0.4 1.8q0 1.1 0.1 2.1c0.3 1.4 0.7 2.8 1.3 4.2q0.8 2.1 1.8 4.1z"/>
						</g>
					</g>
				</g>
				<g id="&lt;Group&gt;">
					<path id="&lt;Path&gt;" class="s0" d="m602.2 701c-1.5-0.4-2.5 0.8-2.5 2.1 0.1 0.8 0.3 1.7 0.4 2.5 0.2 0.9 0.9 1.9 1 2.7q0 0.4 0.2 0.5c0.2 0.7 1 0.6 1.4 0.2 0.8-1.2 1.3-3.4 1.3-4.8 0.1-1.3-0.4-2.9-1.8-3.2z"/>
				</g>
				<g id="&lt;Group&gt;">
					<path id="&lt;Path&gt;" class="s0" d="m597 710.7c-0.4-1.1-0.9-2.1-1.8-2.9-0.8-0.6-2.1-1.1-3-0.3-0.7 0.7-0.3 1.7 0.3 2.4 0.4 0.5 1 0.9 1.7 1.1 0.6 0.3 1.3 0.7 2 0.7q0.2-0.1 0.4-0.1c0.3-0.2 0.6-0.5 0.4-0.9z"/>
				</g>
				<g id="&lt;Group&gt;">
					<path id="&lt;Path&gt;" class="s0" d="m612.3 706.7c-0.7-0.7-2.1-0.5-2.9 0.1-0.5 0.4-0.8 1-1.1 1.5-0.4 0.5-0.8 1-0.9 1.7q-0.1 0.3 0.1 0.5c-0.1 0.5 0.5 1.1 1.1 0.8 1.1-0.7 2.5-0.7 3.6-1.6 0.8-0.8 1.1-2.2 0.1-3z"/>
				</g>
			</g>
			<g id="&lt;Group&gt;">
				<g id="&lt;Group&gt;">
					<path id="&lt;Path&gt;" class="s0" d="m842.1 721.9c-6.3 13.6-16.4 27.5-29.2 35.5-13.5 8.4-28.5 13-43.6 17.4-14.9 4.4-30.1 7.3-45.1 11.3-13.8 3.7-26.9 10-39.8 15.8-13.4 6.1-26.3 13.5-38.3 22.1-10.3 7.5-21.3 16.8-28.6 27.5-5.8 8.5-6.9 21.2-0.5 29.9 6.7 9 20.7 9.2 28.2 1 6.6-7.2 7-20.5-1.8-26.3-8.5-5.7-17.5 2.1-15.4 11.5q0.5-1 1.1-1.9-0.1 0-0.2 0c-2 0.4-1.2 3.4 0.8 3q0.1 0 0.2 0c0.9-0.2 1.3-1.2 1.1-2-1.8-8.1 7.2-12.4 12.7-6.2 4.8 5.4 4.1 14.5-0.7 19.7-5 5.4-14.2 6.8-20.3 2.5-5.2-3.8-6.9-10.5-6.8-16.6 0.1-12.2 11.7-22.8 20.5-30.2 8.5-7.2 17.4-13.7 26.9-19.4 9.9-5.9 20.3-10.7 30.6-15.7 5.3-2.6 11-4.3 16.5-6.4 5.9-2.2 11.6-4.6 17.8-6 22.2-5.3 45.4-9.7 66.5-18.5 10.3-4.3 21-9.3 29.3-17 8.5-8.1 15.9-18.9 20.8-29.4 0.8-1.8-1.8-3.4-2.7-1.6z"/>
				</g>
			</g>
			<g id="&lt;Group&gt;">
				<g id="&lt;Group&gt;">
					<path id="&lt;Path&gt;" class="s0" d="m354.4 723.5c4.5 9.7 11 18.9 18.3 26.8 6.8 7.4 15.7 12.2 24.7 16.4 20.4 9.5 42.8 14.2 64.6 19.5 22.9 5.6 45.1 14.3 65.8 25.7 10.1 5.6 20.3 11.6 29 19.2 8.4 7.2 18.1 14.5 23.7 24.4 3.4 6.1 3.7 13.5 1.3 20.1-3.2 8.7-13.8 12.2-22 7.8-5.7-3.2-9-11.5-7.2-17.8 1.2-3.9 5-8.8 9.6-8.6 4.8 0.3 6.9 5.8 6 9.7-0.2 0.8 0.2 1.8 1.1 2q0.1 0 0.2 0c2 0.4 2.8-2.6 0.8-3q-0.1 0-0.2 0 0.5 0.9 1.1 1.9c1.6-7.5-4.1-15.7-12.3-13.1-9.8 3.2-11.6 15.2-7.9 23.6 4.1 9.1 17 13.3 25.7 8.3 8.7-5.1 11.7-17.8 8.9-27-3.7-12.2-16-21.6-25.3-29.4-10.9-9.1-22.8-16.6-35.4-23.2-12.8-6.7-26-11.7-39.4-17-14.6-5.7-30.2-7.8-45.2-12-16.7-4.6-33.3-9.2-48.7-17.4-15.5-8.2-27.2-22.7-34.5-38.5-0.9-1.8-3.6-0.2-2.7 1.6z"/>
				</g>
			</g>
		</g>
	</g>
</svg>